HIERARCHY
ROOT Hips
{
	OFFSET 0.00 0.00 0.00
	CHANNELS 6 Xposition Yposition Zposition Zrotation Xrotation Yrotation
	JOINT LeftUpLeg
	{
		OFFSET -0.0757 0.0397 -7.6617
		CHANNELS 3 Zrotation Xrotation Yrotation
		JOINT LeftLowLeg
		{
			OFFSET 15.2656 -10.2276 -2.4882
			CHANNELS 3 Zrotation Xrotation Yrotation
			JOINT LeftFoot
			{
				OFFSET 1.7593 -11.9190 2.0143
				CHANNELS 3 Zrotation Xrotation Yrotation
				JOINT ltoes
				{
					OFFSET 9.3036 -4.3393 -2.6818
					CHANNELS 3 Zrotation Xrotation Yrotation
					End Site
					{
						OFFSET 4.6518 -2.1697 -1.3409
					}
				}
			}
		}
	}
	JOINT RightUpLeg
	{
		OFFSET 0.0757 -0.0397 7.6617
		CHANNELS 3 Zrotation Xrotation Yrotation
		JOINT RightLowLeg
		{
			OFFSET 14.6839 -9.8859 2.1253
			CHANNELS 3 Zrotation Xrotation Yrotation
			JOINT RightFoot
			{
				OFFSET 0.5469 -14.3470 -1.8505
				CHANNELS 3 Zrotation Xrotation Yrotation
				JOINT rtoes
				{
					OFFSET 9.3187 -5.4110 2.1467
					CHANNELS 3 Zrotation Xrotation Yrotation
					End Site
					{
						OFFSET 4.6594 -2.7055 1.0733
					}
				}
			}
		}
	}
	JOINT lowerback
	{
		OFFSET 0.0000 0.0000 0.0000
		CHANNELS 3 Zrotation Xrotation Yrotation
		JOINT upperback
		{
			OFFSET 4.0648 8.7020 -0.2028
			CHANNELS 3 Zrotation Xrotation Yrotation
			JOINT Chest
			{
				OFFSET 7.3825 6.9784 -0.3040
				CHANNELS 3 Zrotation Xrotation Yrotation
				JOINT Neck
				{
					OFFSET 4.4358 8.5222 -0.1095
					CHANNELS 3 Zrotation Xrotation Yrotation
					JOINT Head
					{
						OFFSET 4.9835 9.6154 -1.0739
						CHANNELS 3 Zrotation Xrotation Yrotation
						End Site
						{
							OFFSET 5.1606 14.0449 -1.0522
						}
					}
				}
				JOINT LeftCollar
				{
					OFFSET 4.4358 8.5222 -0.1095
					CHANNELS 3 Zrotation Xrotation Yrotation
					JOINT LeftUpArm
					{
						OFFSET 5.4267 5.8998 -7.1012
						CHANNELS 3 Zrotation Xrotation Yrotation
						JOINT LeftLowArm
						{
							OFFSET 9.8627 -13.7438 0.0994
							CHANNELS 3 Zrotation Xrotation Yrotation
							JOINT LeftHand
							{
								OFFSET 14.6120 -2.3286 -2.2219
								CHANNELS 3 Zrotation Xrotation Yrotation
								JOINT lfingers
								{
									OFFSET 5.5575 -4.8840 -1.0195
									CHANNELS 3 Zrotation Xrotation Yrotation
									End Site
									{
										OFFSET 6.4062 -3.6272 -1.9351
									}
								}
							}
						}
					}
				}
				JOINT RightCollar
				{
					OFFSET 4.4358 8.5222 -0.1095
					CHANNELS 3 Zrotation Xrotation Yrotation
					JOINT RightUpArm
					{
						OFFSET 5.6389 7.4120 5.5940
						CHANNELS 3 Zrotation Xrotation Yrotation
						JOINT RightLowArm
						{
							OFFSET 9.4899 -14.5990 2.1342
							CHANNELS 3 Zrotation Xrotation Yrotation
							JOINT RightHand
							{
								OFFSET 16.3081 -1.5988 -2.0612
								CHANNELS 3 Zrotation Xrotation Yrotation
								JOINT rfingers
								{
									OFFSET 5.4318 -5.1971 0.1595
									CHANNELS 3 Zrotation Xrotation Yrotation
									End Site
									{
										OFFSET 6.6046 -3.8687 0.3939
									}
								}
							}
						}
					}
				}
			}
		}
	}
	JOINT uppertail
	{
		OFFSET 0.0000 0.0000 0.0000
		CHANNELS 3 Zrotation Xrotation Yrotation
		JOINT middletail
		{
			OFFSET -0.0024 -1.6325 -0.2321
			CHANNELS 3 Zrotation Xrotation Yrotation
			JOINT lowertail
			{
				OFFSET -0.6951 -7.2058 -0.3238
				CHANNELS 3 Zrotation Xrotation Yrotation
				End Site
				{
					OFFSET -1.4899 -6.5767 -0.4887
				}
			}
		}
	}
}
MOTION
Frames: 6
Frame Time: 0.033333
-62.3325 40.6619 -77.1939 -18.2968 2.2558 -15.1935 1.1580 4.9099 -2.4111 -14.9053 -3.0336 -4.1312 15.3471 7.0114 3.5492 0.0000 0.0000 0.0000 0.7367 -5.3576 2.7022 -17.6939 2.4250 2.2583 20.1353 -8.2193 -4.2094 0.0000 0.0000 0.0000 -4.8078 0.7278 -1.8670 1.5025 0.2716 -2.5574 2.0997 2.1526 -2.6003 0.2837 12.6436 -14.9700 -6.2086 14.4550 -2.8298 2.8723 3.5403 1.9062 -2.9488 -0.7426 -1.2619 -3.6416 14.4456 -1.6837 -29.4241 -10.2990 -20.0878 -0.5104 -0.2608 -0.1938 -3.4145 4.0720 -3.7843 -3.4712 -3.6937 6.1668 -3.8383 -5.2298 -0.4994 -26.3378 -16.2208 39.9110 -0.6431 0.0690 0.0513 -22.8993 -3.3332 -138.6179 10.0968 -11.4890 -27.1804 24.2914 -9.7490 -9.6595 
-61.5753 41.2697 -77.0677 -16.6831 2.3969 -16.4066 -1.2846 4.8661 -2.8841 -15.2486 -3.1127 -4.2218 14.1424 6.9156 5.0995 0.0000 0.0000 0.0000 -0.9093 -4.1323 2.0233 -17.4265 2.3776 2.2100 18.3626 -7.7595 -4.7425 0.0000 0.0000 0.0000 -5.1299 0.1915 -1.5353 2.9460 0.2080 -2.3083 4.6150 2.2485 -2.5614 -0.4158 11.0854 -13.6015 -6.1352 13.9048 -2.4292 3.1005 3.8778 1.7558 -5.7085 1.5157 -4.7972 1.4569 16.7408 -0.9334 -33.2214 -7.5252 -28.7927 -0.5104 -0.2608 -0.1938 -2.9856 3.5086 -3.1749 -3.0120 -5.7401 5.8366 -3.2627 -1.0801 -0.6722 -31.6573 -15.2821 32.6444 -0.6431 0.0690 0.0513 -20.3007 -2.9393 -141.7767 10.2782 -10.7864 -25.3108 23.4610 -9.1673 -9.1087 
-60.9677 41.9296 -77.1693 -15.4319 2.4721 -18.2352 -3.8628 4.2773 -3.9363 -13.7110 -2.7541 -3.8191 12.3068 6.9378 8.5385 0.0000 0.0000 0.0000 -2.2336 -1.5576 0.3258 -15.7549 2.0759 1.9130 15.9959 -7.1227 -5.5305 0.0000 0.0000 0.0000 -3.7831 -0.0950 -1.1026 3.2373 0.1965 -1.8473 4.7894 1.9449 -2.1393 -0.4176 9.7940 -13.0066 -6.4936 14.5737 -1.7518 3.3589 4.5096 2.1768 -6.1750 2.2600 -6.9280 5.1036 18.1554 -0.4255 -35.0372 -3.7531 -36.3847 -0.5104 -0.2608 -0.1938 -2.0126 2.1890 -2.7366 -2.9476 -7.0778 6.6010 -1.9959 1.9499 -0.5443 -35.1245 -7.9940 18.3713 -0.6431 0.0690 0.0513 -16.7696 -2.8556 -144.9117 10.4302 -9.9781 -22.9982 22.3955 -8.5451 -8.4503 
-60.7538 42.6410 -77.3736 -14.5755 2.0217 -20.2802 -4.9701 3.1188 -4.4934 -10.8818 -2.0648 -3.1022 7.8304 5.5146 13.7785 0.0000 0.0000 0.0000 -3.4839 0.6815 0.3440 -12.1260 1.3907 1.2984 11.8150 -5.7526 -6.6489 0.0000 0.0000 0.0000 -1.7871 0.1301 -0.9300 2.2068 -0.1354 -1.2995 5.2809 1.2404 -1.5345 -1.2906 9.9779 -12.3222 -6.8862 14.2830 -1.1330 3.9194 5.3687 1.8642 -6.0598 1.0686 -5.5284 5.1973 19.8700 -0.5098 -32.6016 0.7254 -44.0718 -0.5104 -0.2608 -0.1938 -1.4485 1.5754 -1.6464 -4.1820 -7.2443 5.5993 0.0695 4.0778 -0.1208 -31.3899 -2.9937 9.9774 -0.6431 0.0690 0.0513 -11.2805 -2.9616 -149.3806 10.7019 -8.8227 -19.4153 20.9662 -7.6915 -7.6053 
-60.7213 43.6644 -77.7041 -13.6570 2.0611 -22.2572 -5.5377 0.9024 -3.6125 -5.4507 -0.6391 -1.8197 0.3373 0.5834 17.6258 0.0000 0.0000 0.0000 -3.9755 1.3461 1.4521 -8.5925 0.6858 0.7418 5.9223 -3.5323 -8.3328 0.0000 0.0000 0.0000 -0.8651 -0.1292 -0.7979 2.1812 -0.7636 -0.9469 4.7868 0.7051 -1.1863 -2.5095 10.5801 -11.0284 -7.5413 12.9449 -0.5222 4.3262 5.8749 1.4129 -6.5200 0.5765 -3.6140 4.8077 20.6334 -0.6132 -30.5939 1.4443 -45.7002 -0.5104 -0.2608 -0.1938 -1.1273 1.1895 -1.3599 -4.6608 -7.1013 5.7234 0.5042 5.6418 -0.0974 -24.6887 -1.4880 6.5686 -0.6431 0.0690 0.0513 -2.2874 -3.4571 -157.7694 10.6031 -6.4900 -13.0680 17.9462 -5.9505 -6.3051 
-60.9088 45.0038 -78.1129 -12.8648 2.4904 -23.5333 -5.4413 0.0683 -2.0654 -2.3393 0.2346 -1.1445 -5.7948 -4.2929 16.3866 0.0000 0.0000 0.0000 -3.4710 0.6326 2.4999 -5.3623 0.0112 0.2709 -1.6402 -0.0108 -9.3762 0.0000 0.0000 0.0000 0.1287 -0.5090 -0.9558 1.7146 -1.7453 -0.9164 3.4446 0.3114 -1.1788 -3.9752 10.6923 -9.9102 -8.9259 12.2030 0.2548 4.7926 6.3455 0.7201 -6.4631 1.5397 -1.6676 4.1910 19.9823 -0.6770 -31.4632 -0.7321 -41.7091 -0.5104 -0.2608 -0.1938 -1.2068 1.2997 -1.3438 -3.8343 -6.8446 5.3386 2.0913 6.7162 0.2714 -20.1669 -1.5070 6.5048 -0.6431 0.0690 0.0513 8.3676 -2.5967 -161.2081 8.3900 -5.7592 -15.1616 13.0758 -3.8864 -1.9782 
